<mxfile host="app.diagrams.net" agent="Mozilla/5.0 (Macintosh; Intel Mac OS X 10_15_7) AppleWebKit/537.36 (KHTML, like Gecko) Chrome/129.0.0.0 Safari/537.36" version="24.7.17">
  <diagram id="C5RBs43oDa-KdzZeNtuy" name="Page-1">
    <mxGraphModel grid="1" page="1" gridSize="10" guides="1" tooltips="1" connect="1" arrows="1" fold="1" pageScale="1" pageWidth="827" pageHeight="1169" math="0" shadow="0">
      <root>
        <mxCell id="WIyWlLk6GJQsqaUBKTNV-0" />
        <mxCell id="WIyWlLk6GJQsqaUBKTNV-1" parent="WIyWlLk6GJQsqaUBKTNV-0" />
        <mxCell id="5Ba_kqadyuS27FOA51U--0" value="" style="endArrow=none;html=1;rounded=0;fontSize=12;startSize=8;endSize=8;curved=1;" edge="1" parent="WIyWlLk6GJQsqaUBKTNV-1">
          <mxGeometry width="50" height="50" relative="1" as="geometry">
            <mxPoint x="40" y="940" as="sourcePoint" />
            <mxPoint x="40" y="80" as="targetPoint" />
          </mxGeometry>
        </mxCell>
        <mxCell id="5Ba_kqadyuS27FOA51U--1" value="" style="endArrow=none;html=1;rounded=0;fontSize=12;startSize=8;endSize=8;curved=1;" edge="1" parent="WIyWlLk6GJQsqaUBKTNV-1">
          <mxGeometry width="50" height="50" relative="1" as="geometry">
            <mxPoint x="160" y="940" as="sourcePoint" />
            <mxPoint x="160" y="80" as="targetPoint" />
          </mxGeometry>
        </mxCell>
        <mxCell id="5Ba_kqadyuS27FOA51U--2" value="" style="endArrow=none;html=1;rounded=0;fontSize=12;startSize=8;endSize=8;curved=1;" edge="1" parent="WIyWlLk6GJQsqaUBKTNV-1">
          <mxGeometry width="50" height="50" relative="1" as="geometry">
            <mxPoint x="480" y="940" as="sourcePoint" />
            <mxPoint x="480" y="80" as="targetPoint" />
          </mxGeometry>
        </mxCell>
        <mxCell id="5Ba_kqadyuS27FOA51U--4" value="Pelanggan" style="text;html=1;align=center;verticalAlign=middle;whiteSpace=wrap;rounded=0;fontSize=16;" vertex="1" parent="WIyWlLk6GJQsqaUBKTNV-1">
          <mxGeometry x="70" y="80" width="60" height="30" as="geometry" />
        </mxCell>
        <mxCell id="5Ba_kqadyuS27FOA51U--5" value="Kasir" style="text;html=1;align=center;verticalAlign=middle;whiteSpace=wrap;rounded=0;fontSize=16;" vertex="1" parent="WIyWlLk6GJQsqaUBKTNV-1">
          <mxGeometry x="290" y="80" width="60" height="30" as="geometry" />
        </mxCell>
        <mxCell id="5Ba_kqadyuS27FOA51U--10" value="Tampilkan Pesan Kesalahan" style="rounded=1;whiteSpace=wrap;html=1;" vertex="1" parent="WIyWlLk6GJQsqaUBKTNV-1">
          <mxGeometry x="320" y="680" width="140" height="30" as="geometry" />
        </mxCell>
        <mxCell id="5Ba_kqadyuS27FOA51U--11" value="Menghasilkan Laporan Penjualan" style="rounded=1;whiteSpace=wrap;html=1;" vertex="1" parent="WIyWlLk6GJQsqaUBKTNV-1">
          <mxGeometry x="165" y="800" width="200" height="30" as="geometry" />
        </mxCell>
        <mxCell id="5Ba_kqadyuS27FOA51U--38" style="edgeStyle=none;curved=1;rounded=0;orthogonalLoop=1;jettySize=auto;html=1;entryX=0.375;entryY=-0.067;entryDx=0;entryDy=0;fontSize=12;startSize=8;endSize=8;entryPerimeter=0;" edge="1" parent="WIyWlLk6GJQsqaUBKTNV-1" source="5Ba_kqadyuS27FOA51U--12" target="5Ba_kqadyuS27FOA51U--11">
          <mxGeometry relative="1" as="geometry" />
        </mxCell>
        <mxCell id="5Ba_kqadyuS27FOA51U--12" value="Mengupdate Stok" style="rounded=1;whiteSpace=wrap;html=1;" vertex="1" parent="WIyWlLk6GJQsqaUBKTNV-1">
          <mxGeometry x="190" y="740" width="100" height="30" as="geometry" />
        </mxCell>
        <mxCell id="5Ba_kqadyuS27FOA51U--37" style="edgeStyle=none;curved=1;rounded=0;orthogonalLoop=1;jettySize=auto;html=1;entryX=0.5;entryY=0;entryDx=0;entryDy=0;fontSize=12;startSize=8;endSize=8;" edge="1" parent="WIyWlLk6GJQsqaUBKTNV-1" source="5Ba_kqadyuS27FOA51U--13" target="5Ba_kqadyuS27FOA51U--12">
          <mxGeometry relative="1" as="geometry" />
        </mxCell>
        <mxCell id="5Ba_kqadyuS27FOA51U--13" value="Mencatat penjualan" style="rounded=1;whiteSpace=wrap;html=1;" vertex="1" parent="WIyWlLk6GJQsqaUBKTNV-1">
          <mxGeometry x="180" y="680" width="120" height="30" as="geometry" />
        </mxCell>
        <mxCell id="5Ba_kqadyuS27FOA51U--35" style="edgeStyle=orthogonalEdgeStyle;rounded=0;orthogonalLoop=1;jettySize=auto;html=1;entryX=0.5;entryY=0;entryDx=0;entryDy=0;fontSize=12;startSize=8;endSize=8;exitX=0;exitY=0.5;exitDx=0;exitDy=0;" edge="1" parent="WIyWlLk6GJQsqaUBKTNV-1" source="5Ba_kqadyuS27FOA51U--14" target="5Ba_kqadyuS27FOA51U--13">
          <mxGeometry relative="1" as="geometry">
            <Array as="points">
              <mxPoint x="240" y="640" />
            </Array>
          </mxGeometry>
        </mxCell>
        <mxCell id="5Ba_kqadyuS27FOA51U--36" style="edgeStyle=orthogonalEdgeStyle;rounded=0;orthogonalLoop=1;jettySize=auto;html=1;fontSize=12;startSize=8;endSize=8;exitX=1;exitY=0.5;exitDx=0;exitDy=0;" edge="1" parent="WIyWlLk6GJQsqaUBKTNV-1" source="5Ba_kqadyuS27FOA51U--14">
          <mxGeometry relative="1" as="geometry">
            <mxPoint x="405" y="678" as="targetPoint" />
          </mxGeometry>
        </mxCell>
        <mxCell id="5Ba_kqadyuS27FOA51U--14" value="Pembayaran berhasil" style="rounded=1;whiteSpace=wrap;html=1;" vertex="1" parent="WIyWlLk6GJQsqaUBKTNV-1">
          <mxGeometry x="255" y="630" width="130" height="20" as="geometry" />
        </mxCell>
        <mxCell id="5Ba_kqadyuS27FOA51U--34" style="edgeStyle=none;curved=1;rounded=0;orthogonalLoop=1;jettySize=auto;html=1;entryX=0.5;entryY=0;entryDx=0;entryDy=0;fontSize=12;startSize=8;endSize=8;" edge="1" parent="WIyWlLk6GJQsqaUBKTNV-1" source="5Ba_kqadyuS27FOA51U--15" target="5Ba_kqadyuS27FOA51U--14">
          <mxGeometry relative="1" as="geometry" />
        </mxCell>
        <mxCell id="5Ba_kqadyuS27FOA51U--15" value="Proses pembayaran" style="rounded=1;whiteSpace=wrap;html=1;" vertex="1" parent="WIyWlLk6GJQsqaUBKTNV-1">
          <mxGeometry x="257.5" y="570" width="125" height="30" as="geometry" />
        </mxCell>
        <mxCell id="5Ba_kqadyuS27FOA51U--33" style="edgeStyle=orthogonalEdgeStyle;rounded=0;orthogonalLoop=1;jettySize=auto;html=1;entryX=0.5;entryY=0;entryDx=0;entryDy=0;fontSize=12;startSize=8;endSize=8;exitX=0.5;exitY=1;exitDx=0;exitDy=0;" edge="1" parent="WIyWlLk6GJQsqaUBKTNV-1" source="5Ba_kqadyuS27FOA51U--16" target="5Ba_kqadyuS27FOA51U--15">
          <mxGeometry relative="1" as="geometry">
            <Array as="points">
              <mxPoint x="100" y="550" />
              <mxPoint x="320" y="550" />
            </Array>
          </mxGeometry>
        </mxCell>
        <mxCell id="5Ba_kqadyuS27FOA51U--16" value="Melakukan pembayaran" style="rounded=1;whiteSpace=wrap;html=1;" vertex="1" parent="WIyWlLk6GJQsqaUBKTNV-1">
          <mxGeometry x="41.25" y="510" width="117.5" height="30" as="geometry" />
        </mxCell>
        <mxCell id="5Ba_kqadyuS27FOA51U--32" style="edgeStyle=orthogonalEdgeStyle;rounded=0;orthogonalLoop=1;jettySize=auto;html=1;entryX=0.5;entryY=0;entryDx=0;entryDy=0;fontSize=12;startSize=8;endSize=8;exitX=0.5;exitY=1;exitDx=0;exitDy=0;" edge="1" parent="WIyWlLk6GJQsqaUBKTNV-1" source="5Ba_kqadyuS27FOA51U--17" target="5Ba_kqadyuS27FOA51U--16">
          <mxGeometry relative="1" as="geometry">
            <Array as="points">
              <mxPoint x="320" y="500" />
              <mxPoint x="100" y="500" />
            </Array>
          </mxGeometry>
        </mxCell>
        <mxCell id="5Ba_kqadyuS27FOA51U--17" value="Berikan struk" style="rounded=1;whiteSpace=wrap;html=1;" vertex="1" parent="WIyWlLk6GJQsqaUBKTNV-1">
          <mxGeometry x="272.5" y="450" width="95" height="30" as="geometry" />
        </mxCell>
        <mxCell id="5Ba_kqadyuS27FOA51U--31" style="edgeStyle=none;curved=1;rounded=0;orthogonalLoop=1;jettySize=auto;html=1;entryX=0.5;entryY=0;entryDx=0;entryDy=0;fontSize=12;startSize=8;endSize=8;" edge="1" parent="WIyWlLk6GJQsqaUBKTNV-1" source="5Ba_kqadyuS27FOA51U--18" target="5Ba_kqadyuS27FOA51U--17">
          <mxGeometry relative="1" as="geometry" />
        </mxCell>
        <mxCell id="5Ba_kqadyuS27FOA51U--18" value="Hitung total pembayaran" style="rounded=1;whiteSpace=wrap;html=1;" vertex="1" parent="WIyWlLk6GJQsqaUBKTNV-1">
          <mxGeometry x="242.5" y="390" width="155" height="30" as="geometry" />
        </mxCell>
        <mxCell id="5Ba_kqadyuS27FOA51U--30" style="edgeStyle=none;curved=1;rounded=0;orthogonalLoop=1;jettySize=auto;html=1;entryX=0.5;entryY=0;entryDx=0;entryDy=0;fontSize=12;startSize=8;endSize=8;" edge="1" parent="WIyWlLk6GJQsqaUBKTNV-1" source="5Ba_kqadyuS27FOA51U--19" target="5Ba_kqadyuS27FOA51U--18">
          <mxGeometry relative="1" as="geometry" />
        </mxCell>
        <mxCell id="5Ba_kqadyuS27FOA51U--19" value="Terima pesanan" style="rounded=1;whiteSpace=wrap;html=1;" vertex="1" parent="WIyWlLk6GJQsqaUBKTNV-1">
          <mxGeometry x="275" y="330" width="90" height="30" as="geometry" />
        </mxCell>
        <mxCell id="5Ba_kqadyuS27FOA51U--29" style="edgeStyle=orthogonalEdgeStyle;rounded=0;orthogonalLoop=1;jettySize=auto;html=1;entryX=0.5;entryY=0;entryDx=0;entryDy=0;fontSize=12;startSize=8;endSize=8;exitX=0.5;exitY=1;exitDx=0;exitDy=0;" edge="1" parent="WIyWlLk6GJQsqaUBKTNV-1" source="5Ba_kqadyuS27FOA51U--20" target="5Ba_kqadyuS27FOA51U--19">
          <mxGeometry relative="1" as="geometry">
            <Array as="points">
              <mxPoint x="100" y="320" />
              <mxPoint x="320" y="320" />
            </Array>
          </mxGeometry>
        </mxCell>
        <mxCell id="5Ba_kqadyuS27FOA51U--20" value="Pesan makanan" style="rounded=1;whiteSpace=wrap;html=1;" vertex="1" parent="WIyWlLk6GJQsqaUBKTNV-1">
          <mxGeometry x="55" y="280" width="90" height="30" as="geometry" />
        </mxCell>
        <mxCell id="5Ba_kqadyuS27FOA51U--28" style="edgeStyle=none;curved=1;rounded=0;orthogonalLoop=1;jettySize=auto;html=1;fontSize=12;startSize=8;endSize=8;" edge="1" parent="WIyWlLk6GJQsqaUBKTNV-1" source="5Ba_kqadyuS27FOA51U--21" target="5Ba_kqadyuS27FOA51U--20">
          <mxGeometry relative="1" as="geometry" />
        </mxCell>
        <mxCell id="5Ba_kqadyuS27FOA51U--21" value="Memilih makanan" style="rounded=1;whiteSpace=wrap;html=1;" vertex="1" parent="WIyWlLk6GJQsqaUBKTNV-1">
          <mxGeometry x="50" y="220" width="100" height="30" as="geometry" />
        </mxCell>
        <mxCell id="5Ba_kqadyuS27FOA51U--27" value="" style="edgeStyle=none;curved=1;rounded=0;orthogonalLoop=1;jettySize=auto;html=1;fontSize=12;startSize=8;endSize=8;" edge="1" parent="WIyWlLk6GJQsqaUBKTNV-1" source="5Ba_kqadyuS27FOA51U--22">
          <mxGeometry relative="1" as="geometry">
            <mxPoint x="100" y="220" as="targetPoint" />
          </mxGeometry>
        </mxCell>
        <mxCell id="5Ba_kqadyuS27FOA51U--22" value="Melihat Menu" style="rounded=1;whiteSpace=wrap;html=1;" vertex="1" parent="WIyWlLk6GJQsqaUBKTNV-1">
          <mxGeometry x="57.5" y="160" width="85" height="30" as="geometry" />
        </mxCell>
        <mxCell id="5Ba_kqadyuS27FOA51U--24" value="" style="ellipse;html=1;shape=startState;fillColor=#000000;strokeColor=#ff0000;" vertex="1" parent="WIyWlLk6GJQsqaUBKTNV-1">
          <mxGeometry x="85" y="110" width="30" height="30" as="geometry" />
        </mxCell>
        <mxCell id="5Ba_kqadyuS27FOA51U--25" value="" style="edgeStyle=orthogonalEdgeStyle;html=1;verticalAlign=bottom;endArrow=open;endSize=8;strokeColor=#ff0000;rounded=0;fontSize=12;curved=1;" edge="1" parent="WIyWlLk6GJQsqaUBKTNV-1" source="5Ba_kqadyuS27FOA51U--24" target="5Ba_kqadyuS27FOA51U--22">
          <mxGeometry relative="1" as="geometry">
            <mxPoint x="265" y="490" as="targetPoint" />
          </mxGeometry>
        </mxCell>
        <mxCell id="5Ba_kqadyuS27FOA51U--41" style="edgeStyle=none;curved=1;rounded=0;orthogonalLoop=1;jettySize=auto;html=1;entryX=0.5;entryY=0;entryDx=0;entryDy=0;fontSize=12;startSize=8;endSize=8;" edge="1" parent="WIyWlLk6GJQsqaUBKTNV-1" source="5Ba_kqadyuS27FOA51U--39" target="5Ba_kqadyuS27FOA51U--40">
          <mxGeometry relative="1" as="geometry" />
        </mxCell>
        <mxCell id="5Ba_kqadyuS27FOA51U--39" value="" style="strokeWidth=2;html=1;shape=mxgraph.flowchart.decision;whiteSpace=wrap;" vertex="1" parent="WIyWlLk6GJQsqaUBKTNV-1">
          <mxGeometry x="305" y="860" width="25" height="20" as="geometry" />
        </mxCell>
        <mxCell id="5Ba_kqadyuS27FOA51U--40" value="" style="ellipse;html=1;shape=endState;fillColor=#000000;strokeColor=#ff0000;" vertex="1" parent="WIyWlLk6GJQsqaUBKTNV-1">
          <mxGeometry x="310" y="900" width="15" height="20" as="geometry" />
        </mxCell>
        <mxCell id="5Ba_kqadyuS27FOA51U--42" style="edgeStyle=orthogonalEdgeStyle;rounded=0;orthogonalLoop=1;jettySize=auto;html=1;entryX=0;entryY=0.5;entryDx=0;entryDy=0;entryPerimeter=0;fontSize=12;startSize=8;endSize=8;" edge="1" parent="WIyWlLk6GJQsqaUBKTNV-1" source="5Ba_kqadyuS27FOA51U--11" target="5Ba_kqadyuS27FOA51U--39">
          <mxGeometry relative="1" as="geometry" />
        </mxCell>
        <mxCell id="5Ba_kqadyuS27FOA51U--43" style="edgeStyle=orthogonalEdgeStyle;rounded=0;orthogonalLoop=1;jettySize=auto;html=1;entryX=1;entryY=0.5;entryDx=0;entryDy=0;entryPerimeter=0;fontSize=12;startSize=8;endSize=8;" edge="1" parent="WIyWlLk6GJQsqaUBKTNV-1" source="5Ba_kqadyuS27FOA51U--10" target="5Ba_kqadyuS27FOA51U--39">
          <mxGeometry relative="1" as="geometry" />
        </mxCell>
        <mxCell id="5Ba_kqadyuS27FOA51U--44" value="tidak" style="text;html=1;align=center;verticalAlign=middle;whiteSpace=wrap;rounded=0;fontSize=16;" vertex="1" parent="WIyWlLk6GJQsqaUBKTNV-1">
          <mxGeometry x="400" y="630" width="40" height="10" as="geometry" />
        </mxCell>
        <mxCell id="5Ba_kqadyuS27FOA51U--45" value="ya" style="text;html=1;align=center;verticalAlign=middle;whiteSpace=wrap;rounded=0;fontSize=16;" vertex="1" parent="WIyWlLk6GJQsqaUBKTNV-1">
          <mxGeometry x="210" y="630" width="40" height="10" as="geometry" />
        </mxCell>
      </root>
    </mxGraphModel>
  </diagram>
</mxfile>
